<mxfile host="app.diagrams.net" modified="2023-11-11T21:27:51.582Z" agent="Mozilla/5.0 (Macintosh; Intel Mac OS X 10_15_7) AppleWebKit/537.36 (KHTML, like Gecko) Chrome/119.0.0.0 Safari/537.36" version="22.1.0" etag="60IffPoOaMyuLsF5-X4m" type="github">
  <diagram name="페이지-1" id="UD5DOMMkUVTMc-f7pd6E">
    <mxGraphModel>
      <root>
        <mxCell id="0" />
        <mxCell id="1" parent="0" />
      </root>
    </mxGraphModel>
  </diagram>
</mxfile>
